<!DOCTYPE svg PUBLIC "-//W3C//DTD SVG 20010904//EN" "http://www.w3.org/TR/2001/REC-SVG-20010904/DTD/svg10.dtd">
<svg version="1.0" xmlns="http://www.w3.org/2000/svg" width="367px" height="633px" viewBox="0 0 3670 6330" preserveAspectRatio="xMidYMid meet">
<g id="layer101" fill="#3ad57c" stroke="none">
 <path d="M3082 6288 l-2 -47 -80 -30 c-43 -17 -84 -31 -89 -31 -18 0 -71 -51 -93 -91 -13 -23 -45 -55 -75 -75 -29 -19 -67 -56 -84 -82 -17 -26 -47 -58 -66 -72 -20 -14 -49 -38 -64 -55 -16 -16 -52 -54 -81 -83 -78 -77 -115 -114 -170 -170 -28 -27 -64 -63 -80 -78 -16 -16 -53 -54 -83 -84 -30 -30 -69 -70 -87 -88 -33 -33 -97 -96 -165 -165 -21 -20 -59 -58 -85 -85 -27 -26 -64 -63 -84 -83 -47 -47 -117 -117 -161 -162 -20 -19 -58 -57 -85 -85 -28 -27 -66 -65 -85 -85 -20 -19 -57 -56 -84 -83 -27 -27 -65 -65 -84 -84 -19 -19 -55 -55 -79 -80 -25 -25 -63 -60 -85 -79 -23 -18 -41 -39 -41 -46 0 -7 -20 -30 -45 -51 -25 -22 -61 -55 -80 -74 -34 -34 -103 -103 -174 -174 -120 -119 -142 -142 -250 -250 -25 -25 -62 -61 -81 -81 -19 -19 -52 -55 -74 -80 -21 -25 -44 -45 -51 -45 -7 0 -28 -18 -46 -41 -79 -95 -97 -109 -145 -109 l-44 0 0 -195 0 -195 36 0 c54 0 102 -34 126 -89 10 -25 40 -69 66 -98 26 -28 60 -68 75 -87 16 -20 56 -51 90 -68 42 -22 71 -47 89 -75 16 -22 51 -58 79 -77 33 -25 56 -51 68 -79 24 -55 63 -101 99 -116 16 -7 46 -33 67 -58 23 -28 58 -54 89 -68 61 -27 89 -56 106 -109 7 -22 36 -63 65 -94 29 -30 68 -72 88 -92 19 -21 52 -43 73 -50 57 -19 91 -48 115 -97 11 -23 38 -56 59 -73 21 -17 52 -55 69 -84 29 -53 66 -87 124 -116 15 -8 37 -29 48 -47 12 -18 42 -45 67 -60 69 -39 90 -61 123 -131 21 -43 42 -70 68 -88 21 -13 44 -36 52 -50 17 -32 56 -60 111 -80 54 -19 94 -57 118 -111 10 -23 38 -62 62 -86 24 -24 55 -63 70 -85 19 -28 46 -51 86 -71 43 -21 70 -44 95 -80 20 -28 54 -59 76 -70 21 -11 41 -26 45 -33 44 -91 77 -136 118 -163 26 -16 54 -42 63 -57 9 -15 35 -39 58 -52 42 -24 209 -76 244 -76 11 0 40 13 65 29 34 21 51 42 69 80 18 42 31 55 63 70 46 20 103 79 112 116 4 17 24 35 66 57 59 31 89 62 108 112 8 23 15 26 55 26 l45 0 0 220 0 220 -43 0 c-49 0 -73 19 -102 83 -9 20 -33 49 -52 65 -19 15 -60 51 -90 80 -30 29 -74 62 -96 73 -59 30 -95 67 -119 122 -11 26 -35 60 -52 75 -17 15 -49 50 -70 76 -23 29 -58 57 -85 70 -70 32 -109 64 -130 104 -11 21 -39 56 -64 78 -24 23 -55 61 -68 85 -13 24 -44 57 -68 74 -24 16 -69 54 -100 83 -31 30 -72 62 -91 72 -46 24 -62 42 -101 118 -19 37 -45 73 -63 84 -17 11 -45 40 -63 63 -22 29 -51 52 -90 70 -72 34 -99 58 -128 116 -13 26 -37 57 -53 71 -16 13 -45 49 -65 80 -28 44 -47 61 -91 83 -31 15 -84 54 -119 86 -34 32 -80 75 -101 94 l-39 36 7 92 c8 101 18 120 87 159 22 12 48 40 65 71 21 37 44 59 84 83 42 24 62 45 85 85 23 41 43 61 84 84 40 22 61 44 85 84 18 31 45 61 63 71 63 33 79 48 103 94 17 35 38 56 81 82 44 26 65 48 86 86 21 38 40 58 80 80 37 21 61 44 84 80 32 54 66 87 86 88 17 0 83 68 83 84 0 16 64 74 108 98 17 9 40 34 50 55 24 45 64 84 110 108 19 9 41 30 50 47 28 50 72 97 109 115 22 10 48 36 69 69 34 53 58 76 112 106 17 9 40 34 51 56 21 41 68 86 119 114 17 9 40 34 51 56 28 55 65 82 112 82 l39 0 0 209 0 210 -47 3 -47 3 -33 67 c-20 41 -45 77 -69 95 -20 15 -46 39 -58 52 -40 46 -67 66 -129 96 -56 27 -65 36 -89 87 -15 31 -45 74 -67 95 -30 29 -41 47 -44 78 l-4 40 -1 -47z"/>
 </g>

</svg>