<!DOCTYPE svg PUBLIC "-//W3C//DTD SVG 20010904//EN" "http://www.w3.org/TR/2001/REC-SVG-20010904/DTD/svg10.dtd">
<svg version="1.0" xmlns="http://www.w3.org/2000/svg" width="92px" height="158px" viewBox="0 0 920 1580" preserveAspectRatio="xMidYMid meet">
<g id="layer101" fill="#ffffff" stroke="none">
 <path d="M119 1533 c-13 -16 -39 -40 -57 -56 -18 -15 -32 -32 -32 -37 0 -6 -7 -10 -15 -10 -12 0 -15 -13 -15 -55 0 -31 4 -55 10 -55 18 0 530 -516 530 -533 0 -9 -14 -29 -32 -44 -18 -16 -44 -41 -58 -57 -14 -16 -32 -35 -40 -43 -8 -7 -100 -97 -203 -198 -103 -102 -192 -185 -198 -185 -5 0 -9 -24 -9 -52 1 -44 5 -56 26 -73 14 -11 46 -41 71 -67 41 -42 47 -45 75 -37 20 5 83 61 178 156 81 82 160 160 176 174 16 14 43 41 61 60 17 19 36 39 43 44 6 6 26 26 43 45 18 19 46 47 62 62 17 14 43 40 58 57 16 17 32 31 36 31 5 0 21 18 36 40 15 22 34 40 41 40 10 0 14 14 14 50 0 31 -4 50 -12 50 -6 0 -168 156 -360 347 -306 305 -376 371 -398 373 -3 0 -17 -12 -31 -27z"/>
 </g>

</svg>