<!DOCTYPE svg PUBLIC "-//W3C//DTD SVG 20010904//EN" "http://www.w3.org/TR/2001/REC-SVG-20010904/DTD/svg10.dtd">
<svg version="1.0" xmlns="http://www.w3.org/2000/svg" width="92px" height="158px" viewBox="0 0 920 1580" preserveAspectRatio="xMidYMid meet">
<g id="layer101" fill="#ffffff" stroke="none">
 <path d="M742 1547 c-12 -7 -179 -169 -370 -360 -192 -191 -354 -347 -360 -347 -8 0 -12 -19 -12 -50 0 -36 4 -50 14 -50 7 0 26 -18 41 -40 15 -22 31 -40 36 -40 4 0 20 -14 36 -31 15 -17 41 -43 58 -57 16 -15 44 -43 62 -62 17 -19 37 -39 43 -45 7 -5 26 -25 43 -44 18 -19 45 -46 61 -60 16 -14 95 -92 176 -174 95 -95 158 -151 178 -156 28 -8 34 -5 75 37 25 26 57 56 71 67 21 17 25 29 26 73 0 28 -4 52 -9 52 -6 0 -95 83 -198 185 -103 101 -195 191 -203 198 -8 8 -26 27 -40 43 -14 16 -40 41 -58 57 -18 15 -32 35 -32 44 0 17 512 533 530 533 6 0 10 24 10 55 0 41 -4 55 -14 55 -8 0 -18 9 -21 20 -3 11 -10 20 -14 20 -4 0 -28 20 -53 45 -25 25 -48 45 -49 45 -2 -1 -14 -6 -27 -13z"/>
 </g>

</svg>