<!DOCTYPE svg PUBLIC "-//W3C//DTD SVG 20010904//EN" "http://www.w3.org/TR/2001/REC-SVG-20010904/DTD/svg10.dtd">
<svg version="1.0" xmlns="http://www.w3.org/2000/svg" width="367px" height="633px" viewBox="0 0 3670 6330" preserveAspectRatio="xMidYMid meet">
<g id="layer101" fill="#3ad57c" stroke="none">
 <path d="M582 6295 c-2 -33 -9 -47 -42 -78 -22 -21 -53 -63 -68 -95 -24 -51 -33 -60 -89 -87 -62 -30 -89 -50 -129 -96 -12 -13 -38 -37 -58 -52 -24 -18 -49 -54 -69 -95 l-33 -67 -47 -3 -47 -3 0 -210 0 -209 39 0 c47 0 84 -27 112 -82 11 -22 34 -47 51 -56 51 -28 98 -73 119 -114 11 -22 34 -47 51 -56 54 -30 78 -53 112 -106 21 -33 47 -59 69 -69 37 -18 81 -65 109 -115 9 -17 31 -38 50 -47 46 -24 86 -63 110 -108 10 -21 33 -46 50 -55 44 -24 108 -82 108 -98 0 -16 66 -84 83 -84 20 -1 54 -34 86 -88 23 -36 47 -59 84 -80 40 -22 59 -42 80 -80 21 -38 42 -60 86 -86 43 -26 64 -47 81 -82 24 -46 40 -61 103 -94 18 -10 45 -40 63 -71 24 -40 45 -62 85 -84 41 -23 61 -43 84 -84 23 -40 43 -61 85 -85 40 -24 63 -46 84 -83 17 -31 43 -59 65 -71 69 -39 79 -58 87 -159 l7 -92 -39 -36 c-21 -19 -67 -62 -101 -94 -35 -32 -88 -71 -119 -86 -44 -22 -63 -39 -91 -83 -20 -31 -49 -67 -65 -80 -16 -14 -40 -45 -53 -71 -29 -58 -56 -82 -128 -116 -39 -18 -68 -41 -90 -70 -18 -23 -46 -52 -63 -63 -18 -11 -44 -47 -63 -84 -39 -76 -55 -94 -101 -118 -19 -10 -60 -42 -91 -72 -31 -29 -76 -67 -100 -83 -24 -17 -55 -50 -68 -74 -13 -24 -44 -62 -68 -85 -25 -22 -53 -57 -64 -78 -21 -40 -60 -72 -130 -104 -27 -13 -62 -41 -85 -70 -21 -26 -53 -61 -70 -76 -17 -15 -41 -49 -52 -75 -24 -55 -60 -92 -119 -122 -22 -11 -66 -44 -96 -73 -30 -29 -71 -65 -90 -80 -19 -16 -43 -45 -52 -65 -29 -64 -53 -83 -102 -83 l-43 0 0 -220 0 -220 45 0 c40 0 47 -3 55 -26 19 -50 49 -81 108 -112 42 -22 62 -40 66 -57 9 -37 66 -96 112 -116 32 -15 45 -28 63 -70 18 -38 35 -59 69 -80 25 -16 54 -29 65 -29 35 0 202 52 244 76 23 13 49 37 58 52 9 15 37 41 63 57 41 27 74 72 118 163 4 7 24 22 45 33 22 11 56 42 76 70 25 36 52 59 95 80 40 20 67 43 86 71 15 22 46 61 70 85 24 24 52 63 62 86 24 54 64 92 118 111 55 20 94 48 111 80 8 14 31 37 52 50 26 18 47 45 68 88 33 70 54 92 123 131 25 15 55 42 67 60 11 18 33 39 48 47 58 29 95 63 124 116 17 29 48 67 69 84 21 17 48 50 59 73 24 49 58 78 115 97 21 7 54 29 73 50 20 20 59 62 88 92 29 31 58 72 65 94 17 53 45 82 106 109 31 14 66 40 89 68 21 25 51 51 67 58 36 15 75 61 99 116 12 28 35 54 68 79 28 19 63 55 79 77 18 28 47 53 89 75 34 17 74 48 90 68 15 19 49 59 75 87 26 29 56 73 66 98 24 55 72 89 126 89 l36 0 0 195 0 195 -44 0 c-48 0 -66 14 -145 109 -18 23 -39 41 -46 41 -7 0 -30 20 -51 45 -22 25 -55 61 -74 80 -19 20 -56 56 -81 81 -108 108 -130 131 -250 250 -71 71 -140 140 -174 174 -19 19 -55 52 -80 74 -25 21 -45 44 -45 51 0 7 -18 28 -41 46 -22 19 -60 54 -85 79 -24 25 -60 61 -79 80 -19 19 -57 57 -84 84 -27 27 -64 64 -84 83 -19 20 -57 58 -85 85 -27 28 -65 66 -85 85 -44 45 -114 115 -161 162 -20 20 -57 57 -84 83 -26 27 -64 65 -85 85 -71 72 -137 138 -168 168 -16 17 -54 55 -84 85 -30 30 -67 68 -83 84 -16 15 -52 51 -80 78 -55 56 -97 98 -172 173 -28 28 -63 64 -79 80 -15 17 -44 41 -64 55 -19 14 -49 46 -66 72 -17 26 -55 63 -84 82 -30 20 -62 52 -75 75 -22 40 -75 91 -93 91 -5 0 -45 14 -89 31 l-79 30 -4 47 c-3 46 -3 46 -5 7z"/>
 </g>

</svg>